# xmcd
#
# Track frame offsets: 
#        182
#        11940
#        24847
#        47392
#        67470
#        84225
#        104062
#        121902
#        139010
#        150712
#
# Disc length: 2357 seconds
#
# Revision: 3
# Processed by: cddbd v1.5.2PL0 Copyright (c) Steve Scherf et al.
# Submitted via: ExactAudioCopyFreeDBPlugin 1.0
#
DISCID=8009330a
DTITLE=Sandra Mihanovich - Puerto Pollensa
DYEAR=1990
DGENRE=Blues
TTITLE0=Cuatro estrofas
TTITLE1=Me contaron que bajo el asfalto
TTITLE2=Es la vida que me alcanza
TTITLE3=Y hoy te vi
TTITLE4=Igual a los demás
TTITLE5=Puerto Pollensa
TTITLE6=Vos, yo, uno más uno
TTITLE7=Simple
TTITLE8=Conversar con un amigo
TTITLE9=Mil veces lloro
EXTD=YEAR: 1990
EXTT0=
EXTT1=
EXTT2=
EXTT3=
EXTT4=
EXTT5=
EXTT6=
EXTT7=
EXTT8=
EXTT9=
PLAYORDER=
